<?xml version="1.0" encoding="UTF-8" standalone="no"?>
<!-- Created with Inkscape (http://www.inkscape.org/) -->

<svg
   xmlns:dc="http://purl.org/dc/elements/1.1/"
   xmlns:cc="http://creativecommons.org/ns#"
   xmlns:rdf="http://www.w3.org/1999/02/22-rdf-syntax-ns#"
   xmlns:svg="http://www.w3.org/2000/svg"
   xmlns="http://www.w3.org/2000/svg"
   xmlns:sodipodi="http://sodipodi.sourceforge.net/DTD/sodipodi-0.dtd"
   xmlns:inkscape="http://www.inkscape.org/namespaces/inkscape"
   id="svg2548"
   sodipodi:version="0.32"
   inkscape:version="0.91 r"
   width="114"
   height="154"
   version="1.0"
   sodipodi:docname="RockNRollGuitarist2.svg"
   inkscape:output_extension="org.inkscape.output.svg.inkscape">
  <metadata
     id="metadata2553">
    <rdf:RDF>
      <cc:Work
         rdf:about="">
        <dc:format>image/svg+xml</dc:format>
        <dc:type
           rdf:resource="http://purl.org/dc/dcmitype/StillImage" />
        <dc:title></dc:title>
      </cc:Work>
    </rdf:RDF>
  </metadata>
  <defs
     id="defs2551" />
  <sodipodi:namedview
     inkscape:window-height="848"
     inkscape:window-width="1280"
     inkscape:pageshadow="2"
     inkscape:pageopacity="0.0"
     guidetolerance="10.0"
     gridtolerance="10.0"
     objecttolerance="10.0"
     borderopacity="1.0"
     bordercolor="#666666"
     pagecolor="#ffffff"
     id="base"
     showgrid="false"
     inkscape:zoom="1"
     inkscape:cx="160.80892"
     inkscape:cy="318.11696"
     inkscape:window-x="0"
     inkscape:window-y="0"
     inkscape:current-layer="svg2548"
     borderlayer="true"
     inkscape:showpageshadow="false"
     inkscape:window-maximized="0" />
  <path
     style="fill:#000000"
     d="M 56.722675,5.0682112 55.957367,5.8028016 C 55.374292,6.360066 54.961571,6.537527 54.243068,6.537527 c -0.566502,0 -1.525135,0.297241 -2.387798,0.7349 -0.793492,0.402124 -1.561312,0.732821 -1.699032,0.734523 -0.386607,0.0058 -0.849493,2.391053 -0.849493,4.369987 0,1.379686 -0.11717,1.987605 -0.5281,2.701634 l -0.535727,0.918296 0.558684,0.750057 c 1.005128,1.359502 -1.135843,3.00133 -3.02299,2.318959 -0.435549,-0.157509 -1.774432,-0.28798 -2.97709,-0.290822 -2.605118,-0.0068 -7.785054,-0.56783 -8.755372,-0.948997 -2.473369,-0.971705 -5.41097,-0.148316 -6.543477,1.8291 -0.68079,1.188596 -2.106082,2.950957 -3.443952,4.262735 -0.348014,0.34135 -0.75492,0.856342 -0.910736,1.148112 -0.168385,0.315346 -0.801743,0.706857 -1.553606,0.956663 -1.472475,0.489008 -3.221007,1.70411 -3.604667,2.502578 -0.151095,0.314409 -0.573374,0.616734 -0.971964,0.696387 -0.461327,0.09232 -1.01808,0.546332 -1.599524,1.308714 -1.112014,1.4582 -2.932711,2.179692 -6.1532,2.441417 -3.0833419,0.25057 -4.5307101,1.353016 -4.5307101,3.459241 0,0.272494 -0.1813961,0.854766 -0.405621,1.285746 -0.2932875,0.563886 -0.4401984,1.639604 -0.5204197,3.841964 l -0.1147986,3.061234 1.4158473,1.224546 c 0.7774284,0.673468 1.8013057,1.555147 2.2730118,1.959262 0.4717035,0.404077 1.2780925,1.147938 1.7908561,1.65308 0.5127569,0.50519 1.0416702,0.918364 1.1785962,0.918364 0.136922,0 0.429881,0.27551 0.650525,0.612326 0.450877,0.688036 -0.01704,1.836737 -0.750027,1.836737 -0.6069891,0 -1.5975067,1.289226 -1.5995166,2.081729 -0.00262,0.40544 -0.2224699,1.450959 -0.4898004,2.32648 -0.2673393,0.875618 -0.4887832,1.89087 -0.4898152,2.25775 -0.00223,0.366763 -0.2111438,1.138242 -0.4668457,1.714337 -0.2556971,0.576018 -0.7025757,2.095417 -0.9949175,3.375073 -0.7192161,3.148119 -0.8799958,3.524723 -2.4107689,5.571575 -1.3577056,1.815325 -1.4474033,2.507411 -0.3214351,2.510176 0.8889707,0.0058 5.0834829,3.029905 5.9389051,4.285848 0.3393035,0.498105 0.510017,0.746519 0.7194053,0.719414 l 0.918388,1.270463 c 0.105324,0.207543 0.241953,0.43994 0.405616,0.711603 0.482533,0.801406 1.161968,1.602136 1.507689,1.783328 0.407361,0.21346 0.909287,0.951559 1.431156,2.089318 0.929637,2.026832 1.963071,3.404489 3.321508,4.446518 0.526774,0.404106 1.483268,1.407672 2.127593,2.234782 0.64432,0.827071 2.135248,2.29458 3.313846,3.260252 1.178598,0.965721 2.142905,1.84303 2.142905,1.943911 0,0.10095 0.392031,0.832263 0.872469,1.630223 0.480445,0.79779 1.255226,2.34214 1.721975,3.42856 0.890943,2.07393 2.207815,4.11053 3.015372,4.67621 0.262962,0.18407 0.596823,0.69921 0.742374,1.14023 0.179523,0.54396 0.740647,1.15347 1.752571,1.89036 2.639354,1.92207 3.166666,3.32797 1.668452,4.45417 -1.838186,1.38172 -2.181222,1.83171 -2.181222,2.88524 0,1.14713 -0.525382,2.3286 -1.193901,2.68627 -0.248677,0.13318 -0.870467,0.60517 -1.385232,1.04859 -2.223415,1.91495 -2.963579,2.78568 -3.275576,3.86482 -0.597263,2.06584 -0.673376,2.1563 -2.716895,3.18377 -1.088158,0.54711 -2.018826,1.12955 -2.066377,1.29341 -0.04753,0.16385 -0.332391,1.23524 -0.627562,2.38012 -1.032479,4.00495 -1.929325,5.3879 -3.497527,5.3879 -0.564339,0 -2.284979,0.87094 -3.237313,1.63779 -0.404091,0.32539 -1.230644,0.98758 -1.836775,1.46942 -0.60614,0.48184 -1.326129,1.27259 -1.59953,1.76023 -0.325137,0.58 -0.791063,0.98643 -1.346967,1.17862 -0.4674363,0.16157 -1.4005398,0.50145 -2.0740251,0.75 l -1.2245115,0.45159 -0.068884,2.25003 c -0.044956,1.43922 0.021476,2.25773 0.1836816,2.25773 0.6026907,0 1.232174,1.00203 1.232174,1.95917 l 0,0.97962 c 0,0 21.29345,0 21.29345,0 -0.134635,-0.2516 -0.780478,-0.97759 -1.173117,-1.05612 -2.278713,-0.4558 -1.943869,-2.63591 0.45154,-2.93888 0.855455,-0.10816 1.239096,-0.3153 1.714318,-0.91852 0.336771,-0.42722 1.120106,-1.29117 1.737311,-1.92855 0.617176,-0.63722 1.192305,-1.34533 1.278039,-1.56885 0.293851,-0.76573 1.759973,-2.56336 2.410791,-2.9542 0.357863,-0.21478 0.964,-0.85817 1.346982,-1.4311 1.435441,-2.14733 3.178861,-4.46246 4.278175,-5.67105 0.624664,-0.68681 1.34101,-1.65001 1.591848,-2.14284 0.702931,-1.38126 2.332818,-3.84567 3.206685,-4.8522 0.995974,-1.14715 2.273009,-3.56086 2.273009,-4.29345 0,-0.51596 1.674407,-2.32657 2.150534,-2.32657 0.529617,0 1.278115,0.82555 1.278115,1.40819 0,0.35407 0.205774,0.8699 0.459234,1.14798 0.608945,0.66814 2.073679,3.4356 2.471983,4.66845 0.174042,0.53881 0.621083,1.58578 0.987257,2.32661 0.366191,0.7408 0.735287,1.62246 0.818889,1.95915 0.08362,0.33685 0.453022,0.94296 0.826555,1.34703 1.405367,1.52035 3.316438,4.40329 3.642956,5.5027 0.441206,1.48591 2.099121,3.34045 2.724512,3.04596 0.889139,-0.41872 5.244147,-0.40503 6.604753,0.0233 1.656212,0.52106 2.205171,1.36836 2.525586,3.89557 0.303259,2.39213 0.508734,2.77842 2.954114,5.46437 0.395279,0.43411 0.719423,0.90245 0.719423,1.04087 0,0.41133 6.507806,0.32803 7.171076,-0.0919 0.298322,-0.18883 0.929169,-0.42367 1.400581,-0.52033 2.18783,-0.44918 9.770836,-4.46771 9.788419,-5.18897 0.02198,-0.90264 -1.352878,-1.79828 -3.665872,-2.38003 -4.992355,-1.2561 -9.826576,-4.39947 -11.04365,-7.18654 -0.460142,-1.05369 -1.513103,-1.76783 -2.61738,-1.76783 -0.660113,0 -2.202501,-1.22215 -2.82399,-2.24245 -0.890451,-1.46159 -1.938588,-2.99459 -2.303654,-3.3597 -0.189379,-0.18934 -0.595753,-0.84765 -0.903129,-1.46946 -2.564366,-5.18835 -5.207637,-10.06731 -6.076575,-11.2043 -1.526897,-1.99783 -1.373183,-1.60361 -3.642987,-9.03081 -0.288148,-0.94288 -0.785022,-2.16927 -1.102065,-2.72459 -0.31707,-0.55524 -0.851238,-1.97847 -1.193925,-3.16077 -0.342605,-1.18223 -0.865881,-2.54569 -1.163285,-3.03066 -1.116347,-1.820575 -2.730022,-3.748623 -3.58935,-4.293476 -1.079927,-0.684623 -3.172785,-3.00192 -3.359769,-3.719478 -0.07455,-0.286201 -0.373126,-0.630654 -0.665819,-0.76532 -0.292706,-0.134541 -0.976542,-0.821794 -1.515375,-1.522976 -0.538756,-0.701202 -1.318929,-1.679132 -1.737275,-2.173515 -1.114427,-1.317007 -1.239956,-1.634094 -1.920948,-4.921007 -0.926114,-4.470259 -0.0044,-5.22718 4.002651,-3.260252 2.479404,1.217644 6.557567,0.893984 8.143018,-0.650587 0.357507,-0.348339 1.161321,-1.076017 1.7909,-1.614819 0.629451,-0.53884 1.288716,-1.31026 1.461681,-1.714347 0.642825,-1.50168 0.98494,-1.625162 3.956771,-1.392824 3.019209,0.236012 3.059801,0.228849 3.658244,-1.362286 1.271488,-3.38126 2.610145,-4.863674 4.140434,-4.576642 0.661265,0.124063 0.857768,0.04601 1.193886,-0.466881 0.463604,-0.707601 1.287249,-1.040773 1.714276,-0.696465 0.511139,0.412226 3.900962,1.71658 5.525612,2.127646 1.765541,0.446717 2.234805,0.370041 2.234805,-0.382626 0,-0.35674 0.110368,-0.483112 0.35197,-0.390322 0.214698,0.08226 0.413585,-0.05607 0.505193,-0.344423 0.192275,-0.605879 1.015029,-0.805061 2.693951,-0.665851 l 1.331645,0.107155 0.267829,-1.301058 c 0.148974,-0.717809 0.426182,-1.459311 0.61228,-1.64551 0.186066,-0.186007 0.267075,-0.406388 0.183674,-0.489714 -0.08339,-0.08342 -0.04688,-0.152048 0.07654,-0.153092 0.123482,-0.0029 0.883173,-0.103288 1.691394,-0.229583 0.808116,-0.126305 2.906113,-0.301533 4.660839,-0.382646 l 3.19134,-0.145435 0.55104,0.742372 c 0.44164,0.597343 0.73256,0.747041 1.46175,0.749999 1.34345,0.0058 1.62419,0.27462 1.44647,1.369942 -0.17269,1.064254 0.1256,1.574171 0.8189,1.392892 0.57243,-0.149718 0.6132,-0.537429 0.12246,-1.186276 -0.76689,-1.01387 -0.49023,-1.659643 0.64284,-1.507683 1.21915,0.163541 1.47793,0.509057 1.29343,1.66845 -0.17612,1.106477 0.35533,1.687957 0.97196,1.071406 0.48941,-0.489424 0.49249,-0.785621 0.0231,-1.255122 -0.81516,-0.81521 -0.16266,-1.644302 1.09445,-1.39292 l 0.80356,0.160805 -0.15304,1.293296 c -0.16683,1.419465 -0.009,1.66554 0.92604,1.431229 0.46914,-0.117769 0.56211,-0.247631 0.40559,-0.558705 -0.90883,-1.807099 -0.93108,-2.484385 -0.0841,-2.494941 0.23994,-0.0058 0.69959,-0.206848 1.01787,-0.45157 l 0.57401,-0.443913 -0.55103,-1.499988 c -0.5188,-1.422762 -2.13037,-3.229686 -2.8853,-3.229686 -0.28299,0 -0.5357,-0.590441 -0.5357,-1.247447 0,-0.268763 -0.17226,-0.466891 -0.39801,-0.466891 -0.32111,0 -0.35781,0.163589 -0.22192,0.887788 0.14327,0.763861 0.11001,0.867933 -0.23725,0.734755 -0.22256,-0.08545 -0.73604,-0.153101 -1.14034,-0.153101 -0.48336,0 -0.69971,-0.104826 -0.62761,-0.306134 0.14138,-0.394082 -0.25398,-1.163308 -0.59691,-1.163308 -0.15411,0 -0.21597,0.305951 -0.15304,0.734736 0.11587,0.789439 0.0208,0.832156 -1.23217,0.581634 -0.50818,-0.101597 -0.7762,-0.31002 -0.82654,-0.650519 -0.11553,-0.780159 -0.64551,-0.78622 -0.73473,-0.0077 -0.0748,0.652608 -0.15215,0.694165 -1.545974,0.811238 -0.808124,0.06786 -1.577746,0.194387 -1.714323,0.283205 -0.136552,0.08864 -2.608701,0.23141 -5.487347,0.313751 -2.878691,0.08236 -5.33437,0.215132 -5.456745,0.290783 -0.328209,0.202836 -1.364005,-0.551648 -1.546055,-1.125037 -0.200158,-0.630867 -0.481942,-0.627609 -1.124874,0.01547 -0.354849,0.354815 -0.675007,0.464735 -1.040895,0.35208 -0.580884,-0.179095 -0.60393,-0.181328 -1.974491,-0.01576 -0.524527,0.06361 -1.115665,0.02049 -1.316396,-0.09174 -0.25986,-0.145474 -0.642628,0.07617 -1.32398,0.757588 -0.81187,0.811865 -1.108604,0.952052 -1.982194,0.948968 -0.566612,-0.0048 -2.300515,0.03915 -3.849585,0.09183 -10.112142,0.344473 -12.013129,0.295463 -12.51309,-0.321455 -0.638476,-0.787796 -0.598338,-1.00866 0.390342,-2.303532 l 0.8572,-1.125066 0,-3.405745 c 0,-3.350742 0.01516,-3.422807 0.696447,-4.362302 0.702477,-0.968698 2.358228,-2.54574 2.678634,-2.548505 0.561874,-0.0058 1.033193,-1.622146 1.033193,-3.543495 0,-2.985535 -0.137474,-3.392319 -1.691409,-5.005166 -1.352404,-1.403853 -2.456563,-3.061418 -2.204099,-3.313921 0.06945,-0.06941 0.723298,0.100292 1.446419,0.375077 2.021264,0.767959 3.918438,-0.52696 3.918438,-2.670972 0,-0.874757 0.925569,-1.97876 2.923523,-3.482257 0.807518,-0.607619 0.8153,-0.63716 0.512794,-1.55361 -0.537788,-1.629589 -0.224684,-3.992106 0.71946,-5.479693 1.554486,-2.449527 0.612665,-5.899236 -2.418487,-8.877724 C 67.894187,8.22127 66.799568,7.038503 66.488482,6.598717 65.51176,5.2180158 64.946182,5.0680179 60.618317,5.0680179 l -3.895466,0 z"
     id="path2561"
     sodipodi:nodetypes="ccsssscccssssssssssssscccsssssssssssssccssssssssssssssssssssssssscccscccssssssssssssssssssssssssssssssssssssssssssssssssssssssssscccsssscccsssssssscccssscccssssssssssssssssssssssssscccsssssssssssscc"
     inkscape:connector-curvature="0" />
  <path
     style="opacity:1;fill:#ffffff;fill-opacity:1;fill-rule:nonzero;stroke:none;stroke-width:3;stroke-linecap:butt;stroke-linejoin:round;stroke-miterlimit:2;stroke-dasharray:none;stroke-dashoffset:0;stroke-opacity:1"
     d="m 52.030035,15.13462 c -0.247359,0.0381 -0.164656,0.94182 0.142475,2.68394 0.366908,2.08115 0.480706,6.37905 0.229612,8.55839 -0.122929,1.06718 -0.39257,3.93474 -0.601659,6.37323 -0.209195,2.43849 -0.665574,5.80171 -1.013408,7.47377 -0.347807,1.6721 -0.633383,3.47593 -0.633404,4.00615 -4.8e-5,0.79937 -0.05262,0.95614 -0.910461,1.38541 1.48392,-0.73041 2.817931,-1.39062 4.568167,-1.32216 0.512998,0.0202 1.113765,0.10465 1.615121,0.1742 l -1.409263,-0.18999 0.332548,-1.28258 c 0.667077,-2.59524 1.173984,-6.86257 1.100461,-9.23136 -0.116364,-3.75045 -0.03959,-4.54684 0.538321,-5.52615 0.361544,-0.61274 0.492135,-1.14166 0.395842,-1.62303 -0.117757,-0.58912 -0.02564,-0.77006 0.490911,-1.00548 1.007981,-0.45932 0.643474,-1.45028 -2.620505,-7.23626 -1.248347,-2.21279 -1.944405,-3.28149 -2.224758,-3.23808 z m 7.679575,11.02852 c -0.520065,0 -0.574603,0.10189 -0.482872,0.88672 0.07057,0.60503 -0.01506,0.9266 -0.261328,1.02125 -0.23099,0.0887 -0.373954,0.56504 -0.403763,1.33014 l -0.04762,1.19545 0.467124,-1.26666 c 0.257794,-0.69674 0.663041,-1.6943 0.894611,-2.21684 0.418915,-0.94528 0.416713,-0.95006 -0.166283,-0.95006 z M 26.734819,40.8415 c -0.177086,-0.003 -0.32249,0.009 -0.459192,0.0237 0.133698,-0.0142 0.287472,-0.0247 0.459192,-0.0237 z m -0.459192,0.0237 c -0.06319,0.007 -0.127099,0.013 -0.182095,0.024 0.05782,-0.0113 0.115242,-0.0169 0.182095,-0.024 z m -0.593785,0.18202 c -0.02953,0.0222 -0.05604,0.0457 -0.07917,0.0713 0.02488,-0.0282 0.04648,-0.0477 0.07917,-0.0713 z m -0.205848,0.38799 c -0.0043,0.0234 -0.0077,0.0469 -0.0079,0.0712 9.4e-5,-0.024 0.0064,-0.0487 0.0079,-0.0712 z m 0.110839,0.64126 c 0.0397,0.12064 0.08432,0.24726 0.142506,0.38793 -0.05802,-0.14039 -0.102834,-0.26754 -0.142506,-0.38793 z m 30.195944,2.4464 c 0.586217,0.1098 1.105365,0.2816 1.543799,0.50672 -0.438387,-0.22534 -0.95727,-0.3996 -1.543799,-0.50672 z m 1.797163,0.64922 c 0.243519,0.14783 0.459677,0.31486 0.641253,0.49875 -0.181454,-0.1846 -0.397768,-0.3506 -0.641253,-0.49875 z m -38.136797,9.1997 -0.0079,0.008 c 0.09408,0.0867 0.178837,0.15422 0.277104,0.24544 -0.08631,-0.0807 -0.184689,-0.17531 -0.26919,-0.25329 z m 34.692828,0.39583 -1.797159,0.16629 c -2.287758,0.21418 -2.183071,0.0127 -1.789303,3.27771 0.184926,1.53275 0.341671,2.93674 0.348365,3.11933 0.01275,0.34308 3.521449,0.18345 3.831912,-0.17419 0.04556,-0.0523 0.01674,-0.63148 -0.0476,-1.42512 l -0.07122,-0.69666 c -0.09151,-0.87083 -0.235016,-2.06794 -0.316693,-2.66016 l -0.142495,-1.07673 0.04753,0 -0.06334,-0.53044 z m 2.54139,8.68511 c -0.02413,-0.0119 -0.06347,0.0576 -0.118784,0.19789 -0.324179,0.82383 -1.29594,1.46938 -2.818441,1.87639 -2.004728,0.53596 -3.799099,1.43178 -5.423256,2.7156 -5.283064,4.17605 -9.832957,3.8497 -8.708869,-0.62545 0.484747,-1.92966 0.499767,-2.18514 0.158383,-2.18514 -0.139357,0 -0.253348,0.27979 -0.253348,0.61748 0,2.16306 -0.777259,3.81939 -1.963434,4.19614 -5.54097,1.75978 -9.944773,4.73351 -8.764267,5.91406 0.302392,0.30242 1.353838,0.17202 1.353838,-0.16626 0,-0.18113 -0.117366,-0.44195 -0.261258,-0.58586 -0.84008,-0.84006 3.410782,-3.15855 6.594986,-3.59442 0.444597,-0.0609 1.254757,-0.47475 1.971341,-1.01328 l 0.831271,-0.62548 0.617508,0.57794 c 1.049668,0.98604 2.427277,1.09494 4.512818,0.23749 0.06272,-0.23569 0.453417,-0.39526 1.04506,-0.48291 1.078268,-0.54266 2.319567,-1.29118 3.768592,-2.27222 1.744709,-1.18133 2.300327,-1.44499 4.528571,-2.15349 2.238072,-0.71164 3.014181,-1.32717 2.968893,-2.35142 -0.0077,-0.1719 -0.01599,-0.26514 -0.03957,-0.27706 z m 3.333081,2.32766 c 0.109073,0.0545 0.207359,0.11004 0.308769,0.16626 l 0,-0.008 c -0.0985,-0.0547 -0.204331,-0.10602 -0.308769,-0.15836 z m -36.806659,0.91843 c -1.401998,0 -2.185122,0.76522 -2.185122,2.12182 0,1.99673 2.273791,2.99048 3.721044,1.63082 1.410766,-1.32531 0.415274,-3.75264 -1.535922,-3.75264 z m -6.571223,1.21135 c -0.988724,-0.0273 -2.333075,1.28041 -2.090112,2.24838 0.112049,0.44654 -0.147358,0.83937 -1.22715,1.86055 -0.56443,0.53382 -1.221141,1.24892 -1.67844,1.80507 l -0.19,0.24553 c -0.107652,0.14073 -0.196748,0.2597 -0.285021,0.372 -0.313427,0.44979 -0.505365,0.71679 -0.672962,0.77596 l 0.744215,1.02125 c -0.333032,-0.76794 -0.18123,-1.18822 0.522528,-1.99511 -0.01835,0.0214 -0.04577,0.0429 -0.06333,0.0634 1.181206,-1.60802 3.265972,-3.30147 4.203997,-3.30147 1.234254,0 2.1625,-2.46076 1.13214,-3.00066 -0.121083,-0.0633 -0.2546,-0.0911 -0.39586,-0.0949 z m 11.606513,2.08214 c -0.679095,0 -1.140068,0.46105 -1.140068,1.14007 0,0.67913 0.460973,1.14007 1.140068,1.14007 0.292632,0 0.671998,-0.13365 0.839226,-0.30081 0.710646,-0.71062 0.172063,-1.97933 -0.839226,-1.97933 z m 22.500399,0.94223 c 0.167316,0.0392 0.334616,0.0744 0.498827,0.11875 -0.163788,-0.0443 -0.332012,-0.0794 -0.498827,-0.11875 z m 0.498827,0.11875 c 0.222011,0.0599 0.443474,0.12149 0.65716,0.18994 -0.214043,-0.0686 -0.434788,-0.13004 -0.65716,-0.18994 z m -6.824506,0.1108 c 0.01073,0.0343 0.02529,0.0666 0.04747,0.10292 -0.02142,-0.0346 -0.03661,-0.0705 -0.04747,-0.10292 z m -23.268465,1.3617 c -0.679092,0 -1.140066,0.46102 -1.140066,1.14009 0,0.6791 0.460974,1.14006 1.140066,1.14006 0.292618,0 0.672007,-0.13362 0.839217,-0.30068 0.710639,-0.71084 0.172083,-1.97947 -0.839217,-1.97947 z M 10.83724,74.83765 c -0.07997,0.0893 -0.157324,0.16127 -0.221684,0.21378 0.06572,-0.0539 0.140794,-0.1224 0.221684,-0.21378 z m -0.221684,0.21379 c -0.03221,0.0262 -0.05773,0.0461 -0.08709,0.0632 0.02872,-0.0175 0.05594,-0.0377 0.08709,-0.0632 z m -0.08709,0.0632 c -0.02932,0.0177 -0.05982,0.0314 -0.0871,0.0399 l 0.0079,0.009 c 0.02637,-0.01 0.05102,-0.0309 0.07917,-0.0474 z m 15.683819,2.47808 c -0.679086,0 -1.140062,0.461 -1.140062,1.14006 0,0.6791 0.460976,1.14008 1.140062,1.14008 0.292623,0 0.672006,-0.13358 0.839218,-0.30084 0.710645,-0.71063 0.172081,-1.9793 -0.839218,-1.9793 z"
     id="path2350"
     inkscape:connector-curvature="0" />
  <path
     style="fill:#dd0000"
     d="m 26.734819,40.8415 c -1.373764,-0.007 -1.489776,0.45207 -1.00548,1.623 0.466256,1.12733 0.34245,1.03163 5.169915,3.82394 0.904795,0.52339 2.044875,1.01835 2.533447,1.0926 0.488583,0.0743 1.057723,0.27989 1.266729,0.45918 0.364514,0.31285 1.262947,0.67386 3.855658,1.55176 1.116487,0.37804 2.731421,1.76972 2.731421,2.3514 0,0.14043 0.289083,0.32326 0.641282,0.41165 0.637998,0.16022 2.398838,2.06182 2.398838,2.58894 0,0.15243 0.570041,1.02719 1.266767,1.94764 2.072344,2.73789 1.129024,7.22039 -1.520067,7.22039 -0.392862,0 -0.773842,0.16823 -0.855059,0.38 -0.08024,0.20902 -0.365173,0.38006 -0.641284,0.38006 -0.276121,0 -0.599922,0.17253 -0.720445,0.38796 -0.628919,1.12375 -2.10249,0.57611 -4.299009,-1.60721 -2.597007,-2.58145 -3.835107,-2.71336 -3.56272,-0.38003 0.102012,0.87369 -0.352336,1.85261 -0.855044,1.85261 -0.252645,0 -0.667181,-1.43034 -0.847128,-2.91354 -0.643963,-5.30742 -0.768212,-5.67144 -2.248438,-6.68997 -1.504737,-1.03524 -1.820999,-0.99728 -3.372722,0.41961 -1.088248,0.99382 -2.221216,1.81919 -3.151015,2.2881 -0.0877,0.0445 -1.329329,-1.04219 -2.755157,-2.40679 -1.425836,-1.36462 -2.780274,-2.57979 -3.008509,-2.70767 -0.615529,-0.34485 -3.88427,-3.04407 -4.441501,-3.66562 -1.002196,-1.11791 -1.295004,-0.8359 -2.905589,2.78681 -1.2967379,2.91673 -1.7012139,9.53596 -0.8233741,13.39575 0.142595,0.62703 0.3709395,1.68701 0.5145991,2.35144 0.143673,0.66436 0.695818,2.09869 1.227157,3.19057 l 0.965892,1.98716 -0.657125,0.86292 c 0.457299,-0.55616 1.11401,-1.27121 1.67844,-1.805 1.079792,-1.02123 1.339199,-1.41402 1.22715,-1.86061 -0.277668,-1.1063 1.517254,-2.66104 2.485972,-2.15346 1.03036,0.53993 0.102115,3.00068 -1.13214,3.00068 -0.938025,0 -3.02279,1.69342 -4.203996,3.30148 0.11569,-0.13518 0.247028,-0.27492 0.395863,-0.43556 l 0.593777,-0.63331 0.704627,0.97384 c 1.436704,1.98208 5.280791,5.15396 6.246607,5.15396 0.05839,0 0.705564,0.27624 1.440918,0.60964 4.297351,1.94877 12.835322,1.52776 15.422537,-0.76007 0.22002,-0.19451 0.469667,-0.3562 0.562127,-0.3562 0.598396,0 7.634782,-7.21672 7.402516,-7.59258 -0.06209,-0.10039 -0.07746,-0.19473 -0.05539,-0.27706 -2.085542,0.85745 -3.463151,0.74853 -4.512818,-0.2375 l -0.617509,-0.57795 -0.83127,0.62551 c -0.716585,0.53854 -1.526744,0.95249 -1.971342,1.01331 -3.184203,0.43584 -7.435065,2.75432 -6.594986,3.59438 0.143891,0.14388 0.261259,0.40472 0.261259,0.58587 0,0.33832 -1.051447,0.46869 -1.353838,0.16624 -1.180507,-1.18055 3.223297,-4.15432 8.764267,-5.91407 1.186175,-0.37673 1.963432,-2.03303 1.963432,-4.19615 0,-0.33762 0.113993,-0.61748 0.253351,-0.61748 0.341383,0 0.326362,0.25554 -0.158383,2.1852 -1.124089,4.47511 3.425801,4.80147 8.708868,0.62543 1.624156,-1.28387 3.418528,-2.17963 5.423255,-2.71559 1.522501,-0.40703 2.494263,-1.0526 2.818441,-1.87638 0.110554,-0.28097 0.143196,-0.2647 0.158389,0.0792 0.0455,1.02424 -0.730821,1.63973 -2.968893,2.35138 -2.228247,0.70852 -2.783863,0.9722 -4.528572,2.15346 -1.449023,0.98107 -2.690324,1.72961 -3.768591,2.27227 1.47814,-0.21675 4.227672,0.0249 6.444549,0.73626 0.888963,0.2852 1.893279,0.52253 2.232616,0.52253 0.339314,0 0.810385,0.10415 1.045069,0.22962 0.61737,0.32998 4.213607,-0.35272 5.257002,-0.99757 2.899051,-1.79173 2.445435,-4.07679 -1.092636,-5.52619 -2.882049,-1.18061 -2.674839,-0.92916 -2.541368,-3.00852 l 0.118758,-1.84467 -1.068848,0 -1.068792,0 -0.09503,-0.91838 c 0.06604,0.8131 0.09365,1.40368 0.04757,1.45671 -0.310462,0.35769 -3.819352,0.51736 -3.831916,0.1742 -0.0068,-0.18253 -0.163437,-1.58654 -0.348363,-3.11929 -0.393767,-3.26468 -0.498458,-3.06355 1.789299,-3.27771 l 1.797164,-0.16628 0.06334,0.5304 0.862974,0 c 1.030676,0 1.265809,-0.7113 0.546338,-1.66254 -0.932763,-1.2332 -0.518919,-2.5023 1.211274,-3.73686 2.147665,-1.53253 2.285342,-1.72683 2.082159,-2.92935 -0.221969,-1.31403 -1.514491,-2.22988 -3.475572,-2.50181 -0.501354,-0.0695 -1.102121,-0.15409 -1.615125,-0.1742 -1.916199,-0.075 -3.324741,0.71951 -4.987753,1.52801 -0.737386,0.33447 -1.843118,0.91137 -2.470134,1.25091 -1.880018,1.01797 -5.982816,0.22186 -7.093733,-1.37754 -0.93724,-1.34939 -6.980805,-4.16717 -9.809348,-4.57616 -1.206155,-0.17441 -2.091133,-0.27414 -2.715569,-0.27707 z m -3.531036,25.85731 c 1.951196,0 2.946688,2.42741 1.535922,3.75269 -1.447253,1.3597 -3.721044,0.36591 -3.721044,-1.63084 0,-1.35655 0.783124,-2.12185 2.185122,-2.12185 z m 5.03529,3.2935 c 1.011289,0 1.549872,1.26868 0.839226,1.97932 -0.167228,0.16715 -0.546594,0.30083 -0.839226,0.30083 -0.679095,0 -1.140068,-0.46095 -1.140068,-1.14007 0,-0.67906 0.460973,-1.14008 1.140068,-1.14008 z m -7.093745,2.53348 c 1.0113,0 1.549856,1.26865 0.839217,1.97944 -0.16721,0.16706 -0.546599,0.30065 -0.839217,0.30065 -0.679092,0 -1.140066,-0.46088 -1.140066,-1.14004 0,-0.67903 0.460974,-1.14005 1.140066,-1.14005 z m -9.920152,1.83688 c -0.560768,0.7258 -0.790021,0.95684 -1.060902,0.73621 0.314225,0.30996 0.494073,0.081 1.060902,-0.73621 z m -1.060902,0.73621 c -0.06822,-0.0553 -0.139444,-0.15196 -0.2216667,-0.26125 0.081291,0.11076 0.1565297,0.19697 0.2216667,0.26125 z m 1.330076,1.65472 c 0.406587,0.87658 1.073272,1.81204 1.678436,2.21676 -0.380599,-0.29599 -0.97248,-1.0243 -1.409253,-1.74979 -0.103471,-0.17173 -0.188077,-0.32175 -0.269183,-0.46697 z m 14.717934,0.83919 c 1.011299,0 1.549863,1.26869 0.839218,1.97929 -0.167212,0.16726 -0.546595,0.30087 -0.839218,0.30087 -0.679086,0 -1.140062,-0.461 -1.140062,-1.14011 0,-0.67908 0.460976,-1.14005 1.140062,-1.14005 z"
     id="path2563"
     sodipodi:nodetypes="csssssssssssssssssssssssssscccssssccccsssssccccsssssssssssssscssssscccccsssccccssssscsssccssccsssccssscccccscccsccsssc"
     inkscape:connector-curvature="0" />
</svg>
